<svg xmlns="http://www.w3.org/2000/svg" viewBox="0 0 512 512" width="512" height="512" style=""><rect data-fl-background="" x="0" y="0" width="512" height="512" fill="transparent"></rect><path text="CVPA" fill="rgba(51, 139, 133, 1)" space="preserve" text-anchor="middle" offset="0.5" font-scale="contain" font-size="48" font-family="Montserrat" transform="matrix(1.4441311622949284, 0, 0, 1.4441311622949284, 263.1257546250808, 228.31065500329962)" font-weight="700" font-style="normal" letter-spacing="4" data-fl-textpath="" d="M-55.852000000000004 0.58Q-60.982000000000006 0.58 -65.132-1.66Q-69.292-3.89 -71.662-7.85Q-74.042-11.81 -74.042-16.8L-74.042-16.8Q-74.042-21.79 -71.662-25.75Q-69.292-29.71 -65.132-31.94Q-60.982000000000006-34.18 -55.80200000000001-34.18L-55.80200000000001-34.18Q-51.432-34.18 -47.902-32.64Q-44.37200000000001-31.1 -41.97200000000001-28.22L-41.97200000000001-28.22L-46.97200000000001-23.62Q-50.37200000000001-27.55 -55.412000000000006-27.55L-55.412000000000006-27.55Q-58.53200000000001-27.55 -60.982000000000006-26.18Q-63.432-24.82 -64.802-22.37Q-66.17200000000001-19.92 -66.17200000000001-16.8L-66.17200000000001-16.8Q-66.17200000000001-13.68 -64.802-11.23Q-63.432-8.78 -60.982000000000006-7.42Q-58.53200000000001-6.05 -55.412000000000006-6.05L-55.412000000000006-6.05Q-50.37200000000001-6.05 -46.97200000000001-10.03L-46.97200000000001-10.03L-41.97200000000001-5.42Q-44.37200000000001-2.5 -47.932-0.96Q-51.482000000000006 0.58 -55.852000000000004 0.58L-55.852000000000004 0.58ZM-8.36000000000001-33.6L-0.6300000000000097-33.6L-15.18000000000001 0L-22.860000000000007 0L-37.35000000000001-33.6L-28.95000000000001-33.6L-18.730000000000008-9.6L-8.36000000000001-33.6ZM 20.697999999999993-33.6Q 25.15799999999999-33.6  28.447999999999993-32.11Q 31.737999999999992-30.62  33.507999999999996-27.89Q 35.28799999999999-25.15  35.28799999999999-21.41L 35.28799999999999-21.41Q 35.28799999999999-17.71  33.507999999999996-14.95Q 31.737999999999992-12.19  28.447999999999993-10.73Q 25.15799999999999-9.26  20.697999999999993-9.26L 20.697999999999993-9.26L 13.927999999999992-9.26L 13.927999999999992 0L 6.147999999999993 0L 6.147999999999993-33.6L 20.697999999999993-33.6ZM 20.267999999999994-15.6Q 23.767999999999994-15.6  25.587999999999994-17.11Q 27.417999999999992-18.62  27.417999999999992-21.41L 27.417999999999992-21.41Q 27.417999999999992-24.24  25.587999999999994-25.75Q 23.767999999999994-27.26  20.267999999999994-27.26L 20.267999999999994-27.26L 13.927999999999992-27.26L 13.927999999999992-15.6L 20.267999999999994-15.6ZM 68.234 0L 65.25399999999999-7.2L 49.65399999999999-7.2L 46.68399999999999 0L 38.71399999999999 0L 53.68399999999999-33.6L 61.36399999999999-33.6L 76.39399999999999 0L 68.234 0ZM 52.15399999999999-13.1L 62.80399999999999-13.1L 57.483999999999995-25.97L 52.15399999999999-13.1Z"></path><path text="Servicios Integrales" fill="#338b85" space="preserve" text-anchor="middle" offset="0.5" font-scale="contain" font-size="48" font-family="Open Sans" transform="matrix(0.8616735500480431, 0, 0, 0.8616735500480431, 254.8512221285366, 272.0052171443062)" data-fl-textpath="" d="M-190.78984375-9.12L-190.78984375-9.12Q-190.78984375-4.59 -194.06984375-2.06Q-197.35984375 0.47 -202.97984375 0.47L-202.97984375 0.47Q-209.06984375 0.47 -212.35984375-1.1L-212.35984375-1.1L-212.35984375-4.95Q-210.24984375-4.05 -207.75984375-3.54Q-205.27984375-3.02 -202.83984375-3.02L-202.83984375-3.02Q-198.85984375-3.02 -196.83984375-4.54Q-194.81984375-6.05 -194.81984375-8.74L-194.81984375-8.74Q-194.81984375-10.52 -195.53984375-11.66Q-196.24984375-12.8 -197.92984375-13.76Q-199.60984375-14.72 -203.02984375-15.94L-203.02984375-15.94Q-207.80984375-17.65 -209.85984375-19.99Q-211.90984375-22.34 -211.90984375-26.11L-211.90984375-26.11Q-211.90984375-30.07 -208.92984375-32.41Q-205.95984375-34.76 -201.05984375-34.76L-201.05984375-34.76Q-195.94984375-34.76 -191.65984375-32.88L-191.65984375-32.88L-192.89984375-29.41Q-197.13984375-31.2 -201.14984375-31.2L-201.14984375-31.2Q-204.31984375-31.2 -206.09984375-29.84Q-207.87984375-28.48 -207.87984375-26.06L-207.87984375-26.06Q-207.87984375-24.28 -207.21984375-23.14Q-206.56984375-22.01 -205.00984375-21.06Q-203.44984375-20.11 -200.23984375-18.96L-200.23984375-18.96Q-194.84984375-17.04 -192.81984375-14.84Q-190.78984375-12.63 -190.78984375-9.12ZM-173.51609375 0.47L-173.51609375 0.47Q-179.21609375 0.47 -182.50609375-3Q-185.79609375-6.47 -185.79609375-12.63L-185.79609375-12.63Q-185.79609375-18.84 -182.74609375-22.5Q-179.68609375-26.16 -174.52609375-26.16L-174.52609375-26.16Q-169.69609375-26.16 -166.88609375-22.98Q-164.07609374999998-19.8 -164.07609374999998-14.6L-164.07609374999998-14.6L-164.07609374999998-12.14L-181.76609375-12.14Q-181.65609375-7.62 -179.48609375-5.27Q-177.31609375-2.93 -173.37609375-2.93L-173.37609375-2.93Q-169.22609375-2.93 -165.17609375-4.66L-165.17609375-4.66L-165.17609375-1.2Q-167.23609375-0.3 -169.07609374999998 0.08Q-170.91609375000002 0.47 -173.51609375 0.47ZM-174.57609375-22.9L-174.57609375-22.9Q-177.66609375-22.9 -179.50609375-20.88Q-181.34609375-18.87 -181.67609375-15.3L-181.67609375-15.3L-168.24609375-15.3Q-168.24609375-18.98 -169.88609375-20.94Q-171.52609375-22.9 -174.57609375-22.9ZM-145.72640625-26.16L-145.72640625-26.16Q-144.01640625-26.16 -142.65640625-25.88L-142.65640625-25.88L-143.18640625-22.27Q-144.78640625-22.62 -146.00640625-22.62L-146.00640625-22.62Q-149.11640625-22.62 -151.33640625-20.09Q-153.54640625-17.55 -153.54640625-13.78L-153.54640625-13.78L-153.54640625 0L-157.43640625 0L-157.43640625-25.69L-154.22640625-25.69L-153.78640625-20.93L-153.59640625-20.93Q-152.16640625-23.44 -150.15640625-24.8Q-148.13640625-26.16 -145.72640625-26.16ZM-127.67265625 0L-132.22265625 0L-141.97265625-25.69L-137.80265625-25.69L-132.27265625-10.45Q-130.39265625-5.11 -130.06265625-3.52L-130.06265625-3.52L-129.88265625-3.52Q-129.62265625-4.76 -128.25265625-8.66Q-126.88265625-12.56 -122.09265625-25.69L-122.09265625-25.69L-117.92265625-25.69L-127.67265625 0ZM-109.90578125-25.69L-109.90578125 0L-113.79578125 0L-113.79578125-25.69L-109.90578125-25.69ZM-114.12578125-32.65L-114.12578125-32.65Q-114.12578125-33.98 -113.47578125-34.61Q-112.81578125-35.23 -111.83578125-35.23L-111.83578125-35.23Q-110.89578125-35.23 -110.21578125-34.59Q-109.53578125-33.96 -109.53578125-32.65L-109.53578125-32.65Q-109.53578125-31.34 -110.21578125-30.69Q-110.89578125-30.05 -111.83578125-30.05L-111.83578125-30.05Q-112.81578125-30.05 -113.47578125-30.69Q-114.12578125-31.34 -114.12578125-32.65ZM-91.39515625 0.47L-91.39515625 0.47Q-96.97515625 0.47 -100.03515625-2.96Q-103.08515625-6.4 -103.08515625-12.68L-103.08515625-12.68Q-103.08515625-19.13 -99.98515625-22.64Q-96.87515625-26.16 -91.13515625-26.16L-91.13515625-26.16Q-89.28515625-26.16 -87.43515625-25.76Q-85.58515625-25.36 -84.52515625-24.82L-84.52515625-24.82L-85.72515625-21.52Q-87.01515625-22.03 -88.53515625-22.37Q-90.05515625-22.71 -91.23515625-22.71L-91.23515625-22.71Q-99.05515625-22.71 -99.05515625-12.73L-99.05515625-12.73Q-99.05515625-7.99 -97.14515625-5.46Q-95.23515625-2.93 -91.48515625-2.93L-91.48515625-2.93Q-88.27515625-2.93 -84.90515625-4.31L-84.90515625-4.31L-84.90515625-0.87Q-87.48515625 0.47 -91.39515625 0.47ZM-74.91359375-25.69L-74.91359375 0L-78.80359375 0L-78.80359375-25.69L-74.91359375-25.69ZM-79.13359375-32.65L-79.13359375-32.65Q-79.13359375-33.98 -78.48359375-34.61Q-77.82359375-35.23 -76.84359375-35.23L-76.84359375-35.23Q-75.90359375-35.23 -75.22359375-34.59Q-74.54359375-33.96 -74.54359375-32.65L-74.54359375-32.65Q-74.54359375-31.34 -75.22359375-30.69Q-75.90359375-30.05 -76.84359375-30.05L-76.84359375-30.05Q-77.82359375-30.05 -78.48359375-30.69Q-79.13359375-31.34 -79.13359375-32.65ZM-44.49296875-12.87L-44.49296875-12.87Q-44.49296875-6.59 -47.662968750000005-3.06Q-50.82296875 0.47 -56.40296875 0.47L-56.40296875 0.47Q-59.84296875 0.47 -62.522968750000004-1.15Q-65.19296875-2.77 -66.64296875-5.79Q-68.09296875-8.81 -68.09296875-12.87L-68.09296875-12.87Q-68.09296875-19.15 -64.95296875-22.65Q-61.812968749999996-26.16 -56.24296875-26.16L-56.24296875-26.16Q-50.84296875-26.16 -47.672968749999995-22.57Q-44.49296875-18.98 -44.49296875-12.87ZM-64.06296875-12.87L-64.06296875-12.87Q-64.06296875-7.95 -62.09296875-5.37Q-60.13296875-2.79 -56.312968749999996-2.79L-56.312968749999996-2.79Q-52.49296875-2.79 -50.50296875-5.36Q-48.522968750000004-7.92 -48.522968750000004-12.87L-48.522968750000004-12.87Q-48.522968750000004-17.77 -50.50296875-20.31Q-52.49296875-22.85 -56.35296875-22.85L-56.35296875-22.85Q-60.17296875-22.85 -62.12296875-20.34Q-64.06296875-17.84 -64.06296875-12.87ZM-21.10078125-7.01L-21.10078125-7.01Q-21.10078125-3.42 -23.78078125-1.48Q-26.45078125 0.47 -31.28078125 0.47L-31.28078125 0.47Q-36.39078125 0.47 -39.25078125-1.15L-39.25078125-1.15L-39.25078125-4.76Q-37.39078125-3.82 -35.27078125-3.28Q-33.15078125-2.74 -31.180781250000003-2.74L-31.180781250000003-2.74Q-28.14078125-2.74 -26.50078125-3.71Q-24.85078125-4.69 -24.85078125-6.68L-24.85078125-6.68Q-24.85078125-8.18 -26.16078125-9.25Q-27.46078125-10.31 -31.23078125-11.77L-31.23078125-11.77Q-34.820781249999996-13.1 -36.33078125-14.1Q-37.84078125-15.09 -38.58078125-16.36Q-39.32078125-17.63 -39.32078125-19.38L-39.32078125-19.38Q-39.32078125-22.52 -36.76078125-24.34Q-34.21078125-26.16 -29.75078125-26.16L-29.75078125-26.16Q-25.60078125-26.16 -21.64078125-24.47L-21.64078125-24.47L-23.03078125-21.3Q-26.89078125-22.9 -30.03078125-22.9L-30.03078125-22.9Q-32.80078125-22.9 -34.21078125-22.03Q-35.61078125-21.16 -35.61078125-19.64L-35.61078125-19.64Q-35.61078125-18.61 -35.09078125-17.88Q-34.56078125-17.16 -33.39078125-16.5Q-32.21078125-15.84 -28.89078125-14.6L-28.89078125-14.6Q-24.32078125-12.94 -22.71078125-11.25Q-21.10078125-9.56 -21.10078125-7.01ZM 2.2664062499999993 0L-1.72359375 0L-1.72359375-34.27L 2.2664062499999993-34.27L 2.2664062499999993 0ZM 32.53921875 0L 28.64921875 0L 28.64921875-16.62Q 28.64921875-19.76  27.21921875-21.3Q 25.78921875-22.85  22.74921875-22.85L 22.74921875-22.85Q 18.71921875-22.85  16.83921875-20.67Q 14.96921875-18.49  14.96921875-13.48L 14.96921875-13.48L 14.96921875 0L 11.079218749999999 0L 11.079218749999999-25.69L 14.23921875-25.69L 14.86921875-22.17L 15.05921875-22.17Q 16.24921875-24.07  18.40921875-25.11Q 20.569218749999997-26.16  23.21921875-26.16L 23.21921875-26.16Q 27.85921875-26.16  30.19921875-23.92Q 32.53921875-21.68  32.53921875-16.76L 32.53921875-16.76L 32.53921875 0ZM 48.83015625-2.74L 48.83015625-2.74Q 49.86015625-2.74  50.82015625-2.89Q 51.79015625-3.05  52.35015625-3.21L 52.35015625-3.21L 52.35015625-0.23Q 51.71015625 0.07  50.48015625 0.27Q 49.25015625 0.47  48.27015625 0.47L 48.27015625 0.47Q 40.82015625 0.47  40.82015625-7.38L 40.82015625-7.38L 40.82015625-22.66L 37.14015625-22.66L 37.14015625-24.54L 40.82015625-26.16L 42.46015625-31.64L 44.71015625-31.64L 44.71015625-25.69L 52.16015625-25.69L 52.16015625-22.66L 44.71015625-22.66L 44.71015625-7.55Q 44.71015625-5.23  45.81015625-3.98Q 46.91015625-2.74  48.83015625-2.74ZM 68.33546875 0.47L 68.33546875 0.47Q 62.63546875 0.47  59.34546875-3Q 56.05546875-6.47  56.05546875-12.63L 56.05546875-12.63Q 56.05546875-18.84  59.10546875-22.5Q 62.16546875-26.16  67.32546875-26.16L 67.32546875-26.16Q 72.15546875-26.16  74.96546875-22.98Q 77.77546875-19.8  77.77546875-14.6L 77.77546875-14.6L 77.77546875-12.14L 60.085468750000004-12.14Q 60.19546875-7.62  62.36546875-5.27Q 64.53546875-2.93  68.47546875-2.93L 68.47546875-2.93Q 72.62546875-2.93  76.67546875-4.66L 76.67546875-4.66L 76.67546875-1.2Q 74.61546875-0.3  72.77546875 0.08Q 70.93546875 0.47  68.33546875 0.47ZM 67.27546875-22.9L 67.27546875-22.9Q 64.18546875-22.9  62.34546875-20.88Q 60.50546875-18.87  60.17546875-15.3L 60.17546875-15.3L 73.60546875-15.3Q 73.60546875-18.98  71.96546875-20.94Q 70.32546875-22.9  67.27546875-22.9ZM 96.55515625-25.69L 105.43515625-25.69L 105.43515625-23.23L 100.67515625-22.66Q 101.33515625-21.84  101.84515625-20.52Q 102.36515625-19.2  102.36515625-17.53L 102.36515625-17.53Q 102.36515625-13.76  99.78515625-11.51Q 97.20515625-9.26  92.70515625-9.26L 92.70515625-9.26Q 91.55515625-9.26  90.55515625-9.45L 90.55515625-9.45Q 88.06515625-8.13  88.06515625-6.14L 88.06515625-6.14Q 88.06515625-5.09  88.93515625-4.58Q 89.80515625-4.08  91.91515625-4.08L 91.91515625-4.08L 96.45515625-4.08Q 100.62515625-4.08  102.86515625-2.32Q 105.10515625-0.56  105.10515625 2.79L 105.10515625 2.79Q 105.10515625 7.05  101.68515625 9.29Q 98.26515625 11.53  91.69515625 11.53L 91.69515625 11.53Q 86.66515625 11.53  83.92515625 9.66Q 81.19515625 7.78  81.19515625 4.36L 81.19515625 4.36Q 81.19515625 2.02  82.69515625 0.3Q 84.19515625-1.41  86.91515625-2.02L 86.91515625-2.02Q 85.93515625-2.46  85.26515625-3.4Q 84.59515625-4.34  84.59515625-5.58L 84.59515625-5.58Q 84.59515625-6.98  85.34515625-8.04Q 86.09515625-9.09  87.71515625-10.08L 87.71515625-10.08Q 85.72515625-10.9  84.46515625-12.87Q 83.21515625-14.84  83.21515625-17.37L 83.21515625-17.37Q 83.21515625-21.59  85.74515625-23.87Q 88.27515625-26.16  92.91515625-26.16L 92.91515625-26.16Q 94.93515625-26.16  96.55515625-25.69L 96.55515625-25.69ZM 84.94515625 4.31L 84.94515625 4.31Q 84.94515625 6.4  86.70515625 7.48Q 88.46515625 8.55  91.74515625000001 8.55L 91.74515625000001 8.55Q 96.64515625 8.55  98.99515625000001 7.09Q 101.35515625 5.63  101.35515625 3.12L 101.35515625 3.12Q 101.35515625 1.03  100.06515625 0.22Q 98.77515625-0.59  95.21515625-0.59L 95.21515625-0.59L 90.55515625-0.59Q 87.90515625-0.59  86.42515625 0.68Q 84.94515625 1.95  84.94515625 4.31ZM 87.05515625-17.46L 87.05515625-17.46Q 87.05515625-14.77  88.58515625-13.38Q 90.10515625-12  92.82515624999999-12L 92.82515624999999-12Q 98.51515625-12  98.51515625-17.53L 98.51515625-17.53Q 98.51515625-23.32  92.75515625-23.32L 92.75515625-23.32Q 90.01515625-23.32  88.53515625-21.84Q 87.05515625-20.37  87.05515625-17.46ZM 122.42203125-26.16L 122.42203125-26.16Q 124.13203125-26.16  125.49203125-25.88L 125.49203125-25.88L 124.96203125-22.27Q 123.36203125-22.62  122.14203125-22.62L 122.14203125-22.62Q 119.03203125-22.62  116.81203125-20.09Q 114.60203125-17.55  114.60203125-13.78L 114.60203125-13.78L 114.60203125 0L 110.71203125 0L 110.71203125-25.69L 113.92203125-25.69L 114.36203125-20.93L 114.55203125-20.93Q 115.98203125-23.44  117.99203125-24.8Q 120.01203125-26.16  122.42203125-26.16ZM 148.97578125 0L 146.09578125000002 0L 145.32578125-3.66L 145.13578125-3.66Q 143.21578125-1.24  141.30578125-0.39Q 139.39578125 0.47  136.53578125 0.47L 136.53578125 0.47Q 132.71578125 0.47  130.54578125-1.5Q 128.37578125-3.47  128.37578125-7.1L 128.37578125-7.1Q 128.37578125-14.88  140.82578125-15.26L 140.82578125-15.26L 145.18578125-15.4L 145.18578125-16.99Q 145.18578125-20.02  143.88578125-21.46Q 142.58578125-22.9  139.72578125-22.9L 139.72578125-22.9Q 136.51578125-22.9  132.45578125-20.93L 132.45578125-20.93L 131.26578125-23.91Q 133.15578125-24.94  135.42578125-25.52Q 137.68578125-26.11  139.95578125-26.11L 139.95578125-26.11Q 144.55578125-26.11  146.76578125-24.07Q 148.97578125-22.03  148.97578125-17.53L 148.97578125-17.53L 148.97578125 0ZM 137.30578125-2.74L 137.30578125-2.74Q 140.94578125-2.74  143.01578125-4.73Q 145.08578125-6.73  145.08578125-10.31L 145.08578125-10.31L 145.08578125-12.63L 141.19578125-12.47Q 136.55578125-12.3  134.50578125-11.03Q 132.45578125-9.75  132.45578125-7.05L 132.45578125-7.05Q 132.45578125-4.95  133.73578125-3.84Q 135.01578125-2.74  137.30578125-2.74ZM 160.89109375-36.47L 160.89109375 0L 157.00109375 0L 157.00109375-36.47L 160.89109375-36.47ZM 179.99171875 0.47L 179.99171875 0.47Q 174.29171875 0.47  171.00171875-3Q 167.71171875-6.47  167.71171875-12.63L 167.71171875-12.63Q 167.71171875-18.84  170.76171875-22.5Q 173.82171875-26.16  178.98171875-26.16L 178.98171875-26.16Q 183.81171875-26.16  186.62171875-22.98Q 189.43171875000002-19.8  189.43171875000002-14.6L 189.43171875000002-14.6L 189.43171875000002-12.14L 171.74171875-12.14Q 171.85171875-7.62  174.02171875-5.27Q 176.19171875-2.93  180.13171875-2.93L 180.13171875-2.93Q 184.28171875-2.93  188.33171875-4.66L 188.33171875-4.66L 188.33171875-1.2Q 186.27171875-0.3  184.43171875000002 0.08Q 182.59171874999998 0.47  179.99171875 0.47ZM 178.93171875-22.9L 178.93171875-22.9Q 175.84171875-22.9  174.00171875-20.88Q 172.16171875-18.87  171.83171875-15.3L 171.83171875-15.3L 185.26171875-15.3Q 185.26171875-18.98  183.62171875-20.94Q 181.98171875-22.9  178.93171875-22.9ZM 212.64140625-7.01L 212.64140625-7.01Q 212.64140625-3.42  209.96140625-1.48Q 207.29140625 0.47  202.46140625 0.47L 202.46140625 0.47Q 197.35140625 0.47  194.49140625-1.15L 194.49140625-1.15L 194.49140625-4.76Q 196.35140625-3.82  198.47140625-3.28Q 200.59140625-2.74  202.56140625-2.74L 202.56140625-2.74Q 205.60140625-2.74  207.24140625-3.71Q 208.89140625-4.69  208.89140625-6.68L 208.89140625-6.68Q 208.89140625-8.18  207.58140625-9.25Q 206.28140625-10.31  202.51140625-11.77L 202.51140625-11.77Q 198.92140625-13.1  197.41140625-14.1Q 195.90140625-15.09  195.16140625-16.36Q 194.42140625-17.63  194.42140625-19.38L 194.42140625-19.38Q 194.42140625-22.52  196.98140625-24.34Q 199.53140625-26.16  203.99140625-26.16L 203.99140625-26.16Q 208.14140625-26.16  212.10140625-24.47L 212.10140625-24.47L 210.71140625-21.3Q 206.85140625-22.9  203.71140625-22.9L 203.71140625-22.9Q 200.94140625-22.9  199.53140625-22.03Q 198.13140625-21.16  198.13140625-19.64L 198.13140625-19.64Q 198.13140625-18.61  198.65140625-17.88Q 199.18140625-17.16  200.35140625-16.5Q 201.53140625-15.84  204.85140625-14.6L 204.85140625-14.6Q 209.42140625-12.94  211.03140625-11.25Q 212.64140625-9.56  212.64140625-7.01Z"></path><g transform="matrix(0.6117591797730018, 0, 0, 0.6117591797730018, 376.76942368057786, 162.40709113710903)" fill="#338b85"><path d="M39.638 98.804V87.299l-.181-.025c-3.671-.52-7.116-2.632-10.25-6.291-.477-.471-.664-1.132-.479-1.687l.036-.107-.07-.089a27.8 27.8 0 0 1-.913-1.236v27.43c0 4.806 3.914 8.707 8.74 8.707h12.358c-5.483-2.863-9.241-8.596-9.241-15.197zM36.521 112c-3.717 0-6.74-3.009-6.74-6.707V84.474c2.451 2.283 5.081 3.783 7.857 4.479v9.852c0 5.005 1.939 9.694 5.288 13.196h-6.405z" transform="matrix(1, 0, 0, 1, 0, 0)" fill="#338b85"></path><path d="M91.479 25.776h-7.192v3.21c-.055 2.645-2.084 4.449-4.934 4.449h-.001c-.297 0-.555-.019-.745-.039H49.393c-.19.02-.448.039-.745.039-2.851 0-4.88-1.804-4.934-4.386l-.001-3.273h-7.192c-4.826 0-8.74 3.898-8.74 8.706v15.809c1.244-.435 2.664-.778 4.239-1.159l.343-.083.046-.072c.514-.813 1.299-1.28 2.156-1.28a2.304 2.304 0 0 1 2.327 2.332c0 1.263-1.065 2.331-2.327 2.331-.567 0-.947-.284-1.36-.593l-.078-.058-.094.021c-2.276.514-3.982.905-5.252 1.482v19.214a32.655 32.655 0 0 0 2.91 4.915l.063.087h.107c.69 0 1.167.197 1.635.67 2.818 3.279 5.72 4.942 8.623 4.942 3.547 0 6.592-2.688 8.512-4.932.464-.471.939-.681 1.542-.681h.105l.063-.084c3.696-4.965 6.18-11.817 6.18-17.054 0-6.498-1.869-6.956-8.062-8.473l-.447-.11-.08.059c-.535.399-.978.593-1.353.593-1.266 0-2.335-1.067-2.335-2.331a2.308 2.308 0 0 1 2.335-2.332c.86 0 1.638.483 2.027 1.262l.054.09.095.022c6.559 1.56 10.518 2.501 10.518 11.218 0 5.925-2.683 13.31-6.834 18.814l-.066.088.035.104c.229.685-.136 1.239-.494 1.599-3.037 3.645-6.61 5.851-10.336 6.379l-.184.029.104 11.504c0 7.935 6.406 14.391 14.28 14.391 7.877 0 14.286-6.456 14.286-14.391V88.683l-.176-.029c-4.497-.753-7.762-4.581-7.762-9.103 0-5.137 4.177-9.314 9.311-9.314 5.138 0 9.317 4.178 9.317 9.314 0 4.538-3.265 8.366-7.763 9.103l-.176.028v10.122c0 6.602-3.735 12.334-9.187 15.196h26.85c4.826 0 8.74-3.901 8.74-8.707V34.482c.002-4.808-3.912-8.706-8.739-8.706zm6.741 79.517c0 3.698-3.023 6.707-6.74 6.707H70.557a19.109 19.109 0 0 0 5.26-13.196v-8.526a11.186 11.186 0 0 0 7.938-10.727c0-6.239-5.077-11.314-11.317-11.314-6.236 0-11.311 5.075-11.311 11.314 0 4.986 3.258 9.279 7.938 10.722v8.531c0 6.832-5.512 12.391-12.286 12.391-6.771 0-12.28-5.559-12.28-12.409l-.09-9.837c3.63-.916 7.055-3.212 9.989-6.713.714-.746 1.085-1.629 1.08-2.529 4.144-5.761 6.794-13.3 6.794-19.417 0-9.933-5.199-11.521-11.374-13.001a4.236 4.236 0 0 0-3.319-1.591c-2.431 0-4.335 1.903-4.335 4.332a4.338 4.338 0 0 0 4.335 4.331c.589 0 1.184-.166 1.799-.503 2.479.608 4.271 1.074 5.097 1.816.543.488 1.046 1.386 1.046 4.617 0 4.634-2.131 10.674-5.35 15.258-.727.182-1.385.569-1.965 1.157l-.049.05-.046.054c-1.353 1.58-4.059 4.231-6.992 4.231-2.294 0-4.685-1.429-7.106-4.246l-.046-.054-.049-.049c-.598-.604-1.275-.987-2.053-1.159a30.979 30.979 0 0 1-2.084-3.571V54.6c.832-.258 1.833-.497 2.937-.748a3.606 3.606 0 0 0 1.848.508 4.334 4.334 0 0 0 4.327-4.331c0-2.429-1.9-4.332-4.327-4.332-1.285 0-2.504.581-3.376 1.579-.479.116-.949.231-1.408.348V34.482c0-3.698 3.023-6.706 6.74-6.706h5.193v1.315c.077 3.676 2.993 6.344 6.934 6.344.28 0 .563-.013.844-.039h29.018c.28.026.563.039.845.039 3.94 0 6.856-2.695 6.934-6.449v-1.21h5.192c3.717 0 6.74 3.008 6.74 6.706v70.811z" transform="matrix(1, 0, 0, 1, 0, 0)" fill="#338b85"></path><path d="M48.647 30.436c.325 0 .561-.039.561-.039h29.584s.235.039.561.039c.728 0 1.908-.194 1.935-1.449v-5.449s-.077-1.187-1.786-1.187l-1.796.001c-.385 0-.77 0-1.153-.002-2.207-.009-4.395-1.694-5.65-3.394a8.503 8.503 0 0 1-1.152-2.129s-.966-2.633-3.684-2.744C64.707 14.027 64.354 14 64 14s-.707.027-2.065.083c-2.718.111-3.684 2.744-3.684 2.744a8.503 8.503 0 0 1-1.152 2.129c-1.245 1.686-3.457 3.384-5.65 3.394-.384.002-.769.002-1.153.002l-1.796-.001c-1.709 0-1.786 1.187-1.786 1.187v5.449c.025 1.254 1.206 1.449 1.933 1.449zm.066-6.085h.682l.9.001 1.162-.002c3.068-.014 5.823-2.274 7.249-4.204a10.484 10.484 0 0 0 1.423-2.63c.005-.014.543-1.38 1.887-1.435.559-.023.949-.041 1.24-.055.372-.016.557-.026.744-.026s.372.01.745.027c.29.014.681.032 1.238.055 1.297.053 1.84 1.316 1.891 1.441.353.951.817 1.809 1.419 2.622 1.496 2.025 4.187 4.193 7.25 4.206l1.162.002.9-.001h.682v4.083c-.099-.003-.168-.012-.171-.012h.001l-.161-.026H49.208l-.166.003-.141.02c-.001 0-.077.011-.188.015v-4.084z" transform="matrix(1, 0, 0, 1, 0, 0)" fill="#338b85"></path><path transform="matrix(1, 0, 0, 1, 0, 0)" fill="#338b85" data-cx="64" data-cy="22.167" data-rx="2.761" data-ry="2.751" d="M61.239 22.167 C61.239 20.6476646533002 62.4751418058022 19.416 64 19.416 C65.5248581941978 19.416 66.761 20.6476646533002 66.761 22.167 C66.761 23.686335346699803 65.5248581941978 24.918000000000003 64 24.918000000000003 C62.4751418058022 24.918000000000003 61.239 23.686335346699803 61.239 22.167 Z"></path><path d="M78.751 79.551a6.321 6.321 0 0 0-6.313-6.314c-3.423 0-6.314 2.892-6.314 6.314 0 3.364 2.95 6.314 6.314 6.314 3.422 0 6.313-2.891 6.313-6.314zM91.903 46.667H70.777a1 1 0 1 1 0-2h21.126a1 1 0 1 1 0 2zM91.903 53.41H70.777a1 1 0 1 1 0-2h21.126a1 1 0 1 1 0 2z" transform="matrix(1, 0, 0, 1, 0, 0)" fill="#338b85"></path></g><g transform="matrix(0.4574520493191307, 0, 0, 0.4574520493191307, 73.5049099031858, 170.17486283929026)" fill="#338b85"><path class="st0" d="M93.5 24.2H34.5c-1.1 0-2-0.9-2-2V11.6c0-6.1 5-11.1 11.1-11.1h40.9c6.1 0 11.1 5 11.1 11.1v10.6     C95.5 23.3 94.6 24.2 93.5 24.2z M36.5 20.2h55.1v-8.6c0-3.9-3.2-7.1-7.1-7.1H43.6c-3.9 0-7.1 3.2-7.1 7.1V20.2z" fill="rgba(51,139,133,1)" transform="matrix(1, 0, 0, 1, 0, 0)"></path><path class="st0" d="M112.7 127.5H15.3c-7.5 0-13.6-6.1-13.6-13.6V33.8c0-7.5 6.1-13.6 13.6-13.6h97.4c7.5 0 13.6 6.1 13.6 13.6     v80.1C126.3 121.4 120.2 127.5 112.7 127.5z M15.3 24.2c-5.3 0-9.6 4.3-9.6 9.6v80.1c0 5.3 4.3 9.6 9.6 9.6h97.4     c5.3 0 9.6-4.3 9.6-9.6V33.8c0-5.3-4.3-9.6-9.6-9.6H15.3z" fill="rgba(51,139,133,1)" transform="matrix(1, 0, 0, 1, 0, 0)"></path><path class="st0" d="M124.3 43.3H3.7c-0.6 0-1-0.4-1-1c0-0.6 0.4-1 1-1h120.7c0.6 0 1 0.4 1 1C125.3 42.8 124.9 43.3 124.3 43.3z     " fill="rgba(51,139,133,1)" transform="matrix(1, 0, 0, 1, 0, 0)"></path><path class="st0" d="M64 109.8c-15.2 0-27.6-12.4-27.6-27.6C36.4 67 48.8 54.6 64 54.6c15.2 0 27.6 12.4 27.6 27.6     C91.6 97.4 79.2 109.8 64 109.8z M64 56.6c-14.1 0-25.6 11.5-25.6 25.6c0 14.1 11.5 25.6 25.6 25.6c14.1 0 25.6-11.5 25.6-25.6     C89.6 68.1 78.1 56.6 64 56.6z" fill="rgba(51,139,133,1)" transform="matrix(1, 0, 0, 1, 0, 0)"></path><path class="st0" d="M67.8 96.4h-7.6c-0.6 0-1-0.4-1-1v-8.9h-8.6c-0.6 0-1-0.4-1-1v-6.7c0-0.6 0.4-1 1-1h8.6V69c0-0.6 0.4-1 1-1     h7.6c0.6 0 1 0.4 1 1v8.9h8.6c0.6 0 1 0.4 1 1v6.7c0 0.6-0.4 1-1 1h-8.6v8.9C68.8 96 68.3 96.4 67.8 96.4z M61.2 94.4h5.6v-8.9     c0-0.6 0.4-1 1-1h8.6v-4.7h-8.6c-0.6 0-1-0.4-1-1V70h-5.6v8.9c0 0.6-0.4 1-1 1h-8.6v4.7h8.6c0.6 0 1 0.4 1 1V94.4z" fill="rgba(51,139,133,1)" transform="matrix(1, 0, 0, 1, 0, 0)"></path></g></svg>